<?xml version="1.0" standalone="no"?>
<!DOCTYPE svg PUBLIC "-//W3C//DTD SVG 20010904//EN"
 "http://www.w3.org/TR/2001/REC-SVG-20010904/DTD/svg10.dtd">
<svg version="1.0" xmlns="http://www.w3.org/2000/svg"
 width="3072.000000pt" height="3072.000000pt" viewBox="0 0 3072.000000 3072.000000"
 preserveAspectRatio="xMidYMid meet">
<metadata>
Created by potrace 1.10, written by Peter Selinger 2001-2011
</metadata>
<g transform="translate(0.000000,3072.000000) scale(0.100000,-0.100000)"
fill="#000000" stroke="none">
<path d="M1710 25585 c-7 -8 -23 -15 -37 -15 -13 0 -26 -7 -29 -15 -4 -8 -12
-15 -19 -15 -16 0 -95 -78 -95 -95 0 -7 -6 -18 -14 -24 -8 -7 -17 -33 -21 -59
-12 -76 -17 -2504 -5 -2516 5 -5 10 -27 10 -47 0 -20 7 -42 15 -49 8 -7 15
-18 15 -25 0 -15 90 -105 106 -105 6 0 17 -7 24 -15 7 -8 27 -15 44 -15 17 0
40 -7 50 -15 30 -22 2301 -22 2330 0 11 8 32 15 47 15 14 0 32 7 39 15 7 8 18
15 25 15 18 0 105 88 105 106 0 8 7 17 15 20 10 4 15 20 15 44 0 21 7 43 15
50 23 19 23 2478 0 2486 -10 4 -15 20 -15 50 0 30 -5 46 -15 50 -8 4 -15 15
-15 25 0 11 -7 22 -15 25 -8 4 -15 12 -15 20 0 8 -7 14 -15 14 -8 0 -15 5 -15
10 0 6 -11 15 -25 20 -14 5 -25 14 -25 20 0 5 -11 10 -24 10 -13 0 -29 7 -36
15 -11 13 -158 15 -1210 15 -1052 0 -1199 -2 -1210 -15z m1320 -340 c7 -8 26
-15 42 -15 16 0 31 -6 34 -15 4 -8 13 -15 20 -15 8 0 17 -7 20 -15 4 -8 12
-15 19 -15 16 0 94 -86 106 -117 5 -13 13 -23 19 -23 5 0 10 -14 10 -30 0 -18
6 -33 15 -36 21 -9 21 -200 0 -228 -8 -11 -15 -30 -15 -42 0 -12 -7 -24 -15
-28 -8 -3 -15 -14 -15 -23 0 -10 -8 -26 -17 -34 -10 -9 -31 -31 -48 -50 -16
-19 -38 -38 -47 -42 -10 -3 -18 -11 -18 -17 0 -5 -11 -10 -25 -10 -14 0 -28
-7 -31 -15 -4 -8 -16 -15 -29 -15 -12 0 -36 -7 -51 -15 -36 -19 -121 -19 -154
0 -14 8 -37 14 -51 15 -15 0 -32 7 -39 15 -7 8 -17 15 -23 15 -26 0 -146 113
-147 138 0 7 -7 15 -15 18 -8 4 -15 13 -15 22 0 8 -8 24 -17 34 -23 26 -26
266 -3 293 16 20 35 50 49 82 14 31 110 123 127 123 8 0 17 7 20 15 4 8 18 15
33 15 15 0 36 7 47 15 27 21 197 21 214 0z m324 -960 c3 -9 18 -15 35 -15 16
0 31 -6 35 -15 3 -8 15 -15 26 -15 11 0 23 -7 26 -15 4 -8 12 -15 18 -15 18 0
136 -109 136 -126 0 -8 7 -17 15 -20 8 -4 15 -12 15 -19 0 -7 7 -18 15 -25 8
-7 15 -23 15 -35 0 -12 7 -28 15 -35 11 -9 15 -33 15 -88 0 -67 -3 -77 -26
-98 l-25 -24 -739 0 -739 0 -25 24 c-23 21 -26 31 -26 93 0 51 4 74 15 83 8 7
15 23 15 35 0 12 7 28 15 35 8 7 15 20 15 30 0 10 7 20 15 24 8 3 15 11 15 19
0 16 118 127 135 127 7 0 15 7 19 15 3 8 12 15 19 15 8 0 20 7 27 15 7 8 26
15 42 15 16 0 31 6 34 15 5 13 62 15 424 15 362 0 419 -2 424 -15z m-844 -690
c0 -8 -7 -15 -15 -15 -16 0 -20 12 -8 23 11 12 23 8 23 -8z m650 -7 c0 -4 -16
-8 -35 -8 -19 0 -35 4 -35 8 0 4 16 8 35 8 19 0 35 -4 35 -8z m542 -55 c13
-12 18 -30 18 -68 0 -93 70 -85 -806 -83 l-769 3 -3 69 c-2 38 -1 75 2 83 4
11 138 13 772 13 700 0 769 -1 786 -17z m-426 -365 c19 -19 24 -33 24 -78 0
-45 -5 -59 -24 -77 l-24 -23 -536 0 c-622 0 -576 -8 -576 102 0 105 -48 97
574 97 l538 1 24 -22z"/>
<path d="M7345 25440 c-11 -5 -32 -9 -47 -9 -31 -1 -142 -51 -173 -79 -31 -27
-80 -93 -99 -135 -26 -57 -24 -210 4 -264 34 -66 85 -117 146 -148 65 -31 95
-39 229 -59 139 -21 181 -41 211 -98 36 -69 4 -152 -74 -192 -49 -25 -200 -22
-247 5 -40 24 -68 67 -75 119 l-5 35 -117 3 -118 3 0 -44 c0 -23 8 -65 18 -92
56 -159 217 -255 427 -255 169 0 318 68 391 178 36 55 69 169 61 215 -15 91
-39 148 -88 201 -78 86 -160 117 -399 153 -41 7 -102 43 -124 75 -26 37 -20
92 14 131 59 68 196 76 275 17 25 -19 55 -64 55 -85 0 -13 18 -15 114 -15 67
0 117 4 121 10 17 28 -60 184 -116 237 -79 73 -304 127 -384 93z"/>
<path d="M5035 25418 c-3 -7 -4 -272 -3 -588 l3 -575 109 -3 c60 -1 113 1 118
6 6 6 9 93 8 195 -1 216 -5 207 103 207 72 0 80 -6 120 -80 13 -25 34 -61 45
-80 11 -19 32 -55 45 -80 14 -25 34 -61 46 -80 11 -19 25 -45 30 -56 13 -29
37 -34 164 -34 120 0 134 8 101 58 -24 35 -41 63 -51 82 -4 8 -40 71 -81 140
-95 161 -98 168 -69 179 36 14 133 107 155 149 11 21 27 70 36 110 15 66 15
78 1 145 -37 170 -114 251 -286 301 -73 21 -587 24 -594 4z m547 -223 c54 -37
78 -82 78 -148 0 -126 -92 -187 -281 -187 -77 0 -90 2 -99 19 -11 21 -14 323
-3 334 3 4 65 7 137 7 123 0 134 -2 168 -25z"/>
<path d="M6106 25414 c-14 -14 -16 -80 -16 -579 0 -548 1 -565 19 -575 21 -11
678 -14 719 -4 22 6 23 10 20 108 l-3 101 -255 5 c-140 3 -256 7 -257 8 -9 7
-1 242 8 248 6 3 110 7 232 8 l222 1 0 105 0 105 -230 5 -230 5 -3 115 c-1 63
2 122 8 130 8 12 52 16 257 20 l248 5 3 96 c3 93 2 97 -20 103 -13 3 -177 6
-365 6 -297 0 -344 -2 -357 -16z"/>
<path d="M8043 25423 c-10 -4 -13 -98 -13 -427 0 -450 1 -456 52 -551 69 -127
241 -215 418 -215 186 0 374 99 436 231 43 91 44 100 44 536 l0 421 -22 6
c-29 7 -176 8 -205 0 l-22 -6 -3 -422 c-3 -410 -4 -422 -24 -454 -27 -42 -52
-59 -111 -77 -128 -39 -264 11 -299 110 -11 31 -14 123 -14 428 0 248 -4 395
-10 408 -10 17 -22 19 -113 18 -56 0 -108 -3 -114 -6z"/>
<path d="M9198 25423 c-17 -4 -18 -39 -18 -558 0 -304 -3 -560 -6 -568 -3 -8
2 -22 11 -31 14 -14 35 -16 119 -14 l101 3 3 345 c1 189 6 348 11 353 11 11
43 -55 212 -430 50 -112 64 -139 76 -148 7 -6 48 -9 90 -9 76 2 78 2 100 35
13 18 23 37 23 41 0 4 14 38 31 75 44 98 55 121 82 183 14 30 41 90 61 133 20
42 36 84 36 92 0 19 17 28 26 14 3 -6 6 -159 5 -339 -2 -386 -16 -352 137
-348 l97 3 0 585 0 585 -125 3 c-69 1 -134 0 -145 -3 -17 -4 -55 -66 -55 -88
0 -4 -13 -35 -29 -69 -15 -35 -43 -99 -61 -143 -35 -86 -48 -118 -76 -180 -9
-22 -24 -56 -32 -75 -8 -19 -21 -47 -29 -62 -7 -14 -13 -32 -13 -40 0 -8 -11
-25 -25 -38 -23 -22 -25 -22 -31 -4 -5 17 -104 257 -140 342 -8 17 -20 47 -28
65 -7 17 -21 49 -30 70 -9 20 -23 54 -32 75 -9 20 -22 50 -30 65 -8 16 -14 35
-14 42 0 34 -41 45 -165 44 -66 -1 -128 -3 -137 -6z"/>
<path d="M10616 25421 c-8 -12 -8 -1149 -1 -1161 4 -6 147 -10 364 -10 295 0
361 2 370 14 8 9 11 47 9 107 l-3 94 -244 3 c-160 1 -249 6 -258 13 -14 13
-18 198 -4 233 7 19 18 20 223 17 177 -1 217 1 227 13 8 9 11 46 9 107 l-3 94
-230 5 -230 5 -3 106 c-1 58 2 118 7 132 l10 27 248 2 248 3 3 90 c2 76 0 92
-14 102 -14 10 -102 13 -370 13 -194 0 -355 -4 -358 -9z"/>
<path d="M5039 23849 c-5 -3 -8 -245 -7 -585 l3 -579 260 0 c151 0 287 5 325
12 167 29 262 113 290 256 25 124 -12 235 -109 324 l-45 42 26 10 c39 15 79
74 94 139 34 141 -32 280 -163 343 l-68 33 -299 5 c-164 3 -302 3 -307 0z
m519 -208 c62 -32 77 -55 77 -121 0 -52 -4 -63 -30 -90 -38 -39 -79 -50 -198
-50 -140 0 -137 -3 -137 135 0 62 3 120 6 129 10 25 231 23 282 -3z m40 -478
c46 -26 62 -62 62 -135 -1 -73 -20 -103 -85 -131 -33 -14 -64 -17 -170 -15
l-130 3 -3 134 c-1 74 0 141 2 148 4 10 41 13 150 13 118 0 150 -3 174 -17z"/>
<path d="M6083 23845 c-12 -9 -14 -81 -11 -450 l3 -440 33 -60 c85 -153 220
-225 422 -225 158 0 277 44 364 134 50 51 70 86 97 171 17 55 19 94 19 455 0
217 -4 400 -8 407 -8 13 -201 21 -220 9 -9 -5 -12 -104 -12 -396 0 -417 -3
-441 -53 -497 -72 -80 -245 -91 -336 -21 -74 56 -82 110 -80 545 1 223 -2 358
-8 364 -14 14 -192 17 -210 4z"/>
<path d="M7755 23850 l-100 -5 -3 -574 c-2 -453 0 -576 10 -583 7 -4 169 -8
360 -8 345 0 347 0 359 22 12 23 8 182 -5 195 -4 5 -112 9 -239 10 -127 2
-237 5 -244 7 -10 4 -13 103 -13 470 0 362 -3 465 -12 467 -7 2 -58 2 -113 -1z"/>
<path d="M9689 23849 c-10 -6 -13 -1144 -3 -1160 3 -5 165 -9 359 -9 340 0
355 1 365 19 15 30 13 186 -3 200 -9 7 -98 12 -258 13 l-244 3 -3 108 c-1 62
2 115 8 127 10 19 23 20 233 22 l222 3 0 100 0 100 -219 3 c-141 1 -224 6
-233 13 -17 15 -19 219 -1 237 9 9 77 12 244 12 198 0 235 2 248 16 21 20 23
166 3 183 -14 11 -700 21 -718 10z"/>
<path d="M10619 23849 c-5 -3 -8 -245 -7 -585 l3 -579 90 -3 c147 -5 134 -24
137 206 l3 197 75 3 c41 1 80 -1 86 -5 9 -7 98 -153 117 -193 4 -8 16 -28 27
-45 11 -16 23 -37 27 -45 3 -8 21 -39 40 -67 l33 -53 125 0 c139 0 144 3 104
65 -10 17 -23 39 -29 50 -6 11 -19 34 -30 50 -11 17 -24 39 -29 50 -5 11 -21
37 -35 58 -14 21 -26 40 -26 42 0 3 -13 27 -30 53 -36 59 -38 89 -7 101 47 18
126 101 157 167 70 149 20 360 -109 456 -92 69 -105 71 -425 77 -158 3 -292 3
-297 0z m492 -208 c24 -11 58 -34 74 -51 28 -29 30 -36 30 -110 0 -74 -2 -81
-30 -110 -57 -59 -96 -71 -225 -68 l-115 3 -3 155 c-1 85 0 165 3 178 5 21 10
22 114 22 86 0 118 -4 152 -19z"/>
<path d="M7207 23843 c-4 -3 -7 -261 -7 -573 0 -427 3 -569 12 -578 19 -19
202 -16 222 4 14 14 16 79 16 573 0 420 -3 560 -12 569 -13 13 -219 18 -231 5z"/>
<path d="M8538 23844 c-5 -4 -8 -263 -8 -574 0 -477 2 -569 14 -579 17 -14
447 -9 536 6 99 17 187 62 263 133 65 61 107 133 143 245 28 88 26 325 -4 410
-62 181 -149 273 -317 338 -44 17 -84 20 -335 24 -157 3 -288 2 -292 -3z m554
-234 c108 -48 168 -166 168 -333 0 -144 -30 -232 -102 -298 -63 -57 -114 -70
-259 -67 l-124 3 -3 349 c-2 268 1 352 10 364 20 23 247 10 310 -18z"/>
</g>
</svg>
